<?xml version="1.0" standalone="no"?><svg xmlns="http://www.w3.org/2000/svg" viewBox="0 0 1440 320"><path fill="#0a0604" fill-opacity="1" d="M0,288L12,277.3C24,267,48,245,72,234.7C96,224,120,224,144,229.3C168,235,192,245,216,218.7C240,192,264,128,288,101.3C312,75,336,85,360,90.7C384,96,408,96,432,122.7C456,149,480,203,504,224C528,245,552,235,576,197.3C600,160,624,96,648,90.7C672,85,696,139,720,138.7C744,139,768,85,792,74.7C816,64,840,96,864,128C888,160,912,192,936,170.7C960,149,984,75,1008,85.3C1032,96,1056,192,1080,245.3C1104,299,1128,309,1152,282.7C1176,256,1200,192,1224,149.3C1248,107,1272,85,1296,74.7C1320,64,1344,64,1368,74.7C1392,85,1416,107,1428,117.3L1440,128L1440,0L1428,0C1416,0,1392,0,1368,0C1344,0,1320,0,1296,0C1272,0,1248,0,1224,0C1200,0,1176,0,1152,0C1128,0,1104,0,1080,0C1056,0,1032,0,1008,0C984,0,960,0,936,0C912,0,888,0,864,0C840,0,816,0,792,0C768,0,744,0,720,0C696,0,672,0,648,0C624,0,600,0,576,0C552,0,528,0,504,0C480,0,456,0,432,0C408,0,384,0,360,0C336,0,312,0,288,0C264,0,240,0,216,0C192,0,168,0,144,0C120,0,96,0,72,0C48,0,24,0,12,0L0,0Z"></path></svg>